/* XPM */
static char * favicon_xpm[] = {
"16 16 4 1",
" 	c white",
".	c blue",
"X	c black",
"o	c red",
"                ",
"                ",
"                ",
"                ",
"  ....    ....  ",
" .    .  .    . ",
".  ..  ..  ..  .",
"  .  . .. .  .  ",
" .   XXXXXX   . ",
" .   XXXXXX   . ",
"oooooooooooooooo",
"oooooooooooooooo",
"oooooooooooooooo",
"oooooooooooooooo",
"XXXXXXXXXXXXXXXX",
"XXXXXXXXXXXXXXXX"};